<?xml version="1.0" standalone="no"?>
<!DOCTYPE svg PUBLIC "-//W3C//DTD SVG 20010904//EN"
 "http://www.w3.org/TR/2001/REC-SVG-20010904/DTD/svg10.dtd">
<svg version="1.0" xmlns="http://www.w3.org/2000/svg"
 width="317.000000pt" height="421.000000pt" viewBox="0 0 317.000000 421.000000"
 preserveAspectRatio="xMidYMid meet">
<metadata>
Created by potrace 1.15, written by Peter Selinger 2001-2017
</metadata>
<g transform="translate(0.000000,421.000000) scale(0.100000,-0.100000)"
fill="#000000" stroke="none">
<path d="M453 4156 c-95 -30 -188 -118 -222 -212 -21 -54 -21 -69 -21 -1194 0
-1128 0 -1140 21 -1195 29 -77 102 -154 181 -191 l63 -29 1145 0 1145 0 63 29
c79 37 152 114 181 191 21 55 21 67 21 1195 0 1128 0 1140 -21 1195 -27 73
-104 156 -177 192 l-57 28 -1140 2 c-918 1 -1148 -1 -1182 -11z m1300 -487
c32 -17 77 -60 93 -91 17 -32 20 -271 4 -313 -5 -14 -53 -89 -107 -165 -129
-187 -115 -188 -256 15 -103 148 -114 155 -253 155 -160 0 -144 59 -147 -545
-2 -456 -4 -510 -18 -513 -10 -2 -40 33 -88 107 -80 121 -101 144 -122 136 -8
-3 -50 -60 -93 -126 -54 -81 -84 -119 -95 -117 -14 3 -16 70 -19 653 -2 441 1
662 8 687 13 47 55 97 95 114 40 18 964 20 998 3z m649 -446 c26 -31 150 -236
170 -280 17 -40 18 -72 16 -517 l-3 -474 -30 -44 c-18 -25 -49 -52 -75 -65
-44 -23 -47 -23 -498 -23 -426 0 -455 1 -490 19 -45 23 -87 66 -101 104 -7 18
-11 179 -11 458 0 402 1 429 18 429 10 -1 54 -51 110 -125 64 -87 98 -125 112
-125 14 0 48 38 112 125 59 80 98 125 110 125 17 0 18 -17 18 -276 0 -171 4
-283 10 -295 10 -17 22 -19 133 -19 82 0 127 4 135 12 9 9 12 96 12 329 0 216
4 327 12 350 11 33 147 257 176 292 8 9 23 17 32 17 9 0 24 -8 32 -17z"/>
<path d="M1110 1159 c-58 -33 -112 -64 -120 -69 -11 -6 -2 -16 38 -41 29 -17
52 -32 52 -33 0 -1 -7 -23 -15 -49 -21 -70 -45 -105 -84 -123 -33 -16 -33 -17
-16 -30 54 -40 109 2 133 101 14 57 21 70 37 70 15 0 21 -9 26 -38 9 -56 39
-82 95 -82 51 0 80 25 91 77 5 23 21 37 89 75 46 26 84 50 84 54 0 11 -266
149 -287 149 -10 0 -65 -28 -123 -61z"/>
<path d="M372 795 c-29 -8 -66 -21 -82 -30 -57 -30 -60 -41 -60 -253 0 -111 4
-201 10 -212 13 -25 74 -41 122 -34 l38 7 0 188 c0 183 1 188 22 203 33 23 75
20 103 -9 25 -24 25 -27 25 -189 0 -182 2 -189 62 -199 18 -4 49 -3 68 1 l35
8 3 189 c2 164 5 192 19 203 26 19 76 15 101 -8 21 -20 22 -29 22 -181 0 -89
5 -169 10 -179 13 -25 74 -41 122 -34 l38 7 0 196 c0 184 -1 200 -22 241 -34
68 -90 95 -193 95 -60 0 -91 -6 -127 -22 l-47 -21 -41 20 c-54 27 -158 33
-228 13z"/>
<path d="M2655 797 c-66 -22 -103 -45 -130 -82 -79 -103 -70 -298 17 -383 101
-97 280 -104 397 -15 54 41 86 122 85 218 0 121 -46 200 -141 245 -58 27 -171
36 -228 17z m143 -133 c34 -24 52 -68 52 -128 0 -100 -33 -146 -104 -146 -37
0 -48 5 -70 30 -49 59 -44 190 10 238 30 26 80 29 112 6z"/>
<path d="M1187 793 c-16 -4 -17 -22 -15 -251 l3 -247 37 -18 c29 -14 46 -17
80 -10 l43 9 0 248 c0 234 -1 248 -19 262 -19 13 -90 17 -129 7z"/>
<path d="M2008 787 c-97 -28 -155 -103 -165 -215 -11 -116 50 -235 133 -262
43 -14 124 -18 182 -7 34 6 42 4 42 -7 0 -28 -22 -64 -47 -75 -34 -16 -163
-14 -212 4 -38 13 -41 13 -51 -5 -15 -27 -12 -72 5 -97 23 -33 80 -47 185 -48
115 0 173 19 223 75 51 55 59 110 55 354 -3 233 -2 228 -91 266 -64 28 -191
36 -259 17z m170 -129 c8 -8 12 -48 12 -114 0 -114 0 -114 -75 -114 -32 0 -52
7 -72 24 -25 22 -28 30 -28 91 0 63 2 68 33 96 25 22 42 29 75 29 24 0 48 -5
55 -12z"/>
<path d="M1483 600 c-27 -11 -38 -47 -29 -95 l7 -35 125 0 c69 0 134 4 144 10
24 13 33 55 20 96 l-12 34 -116 -1 c-64 0 -127 -4 -139 -9z"/>
</g>
</svg>
