<?xml version="1.0" standalone="no"?>
<!DOCTYPE svg PUBLIC "-//W3C//DTD SVG 20010904//EN"
 "http://www.w3.org/TR/2001/REC-SVG-20010904/DTD/svg10.dtd">
<svg version="1.0" xmlns="http://www.w3.org/2000/svg"
 width="96.000000pt" height="96.000000pt" viewBox="0 0 96.000000 96.000000"
 preserveAspectRatio="xMidYMid meet">
<metadata>
Created by potrace 1.11, written by Peter Selinger 2001-2013
</metadata>
<g transform="translate(0.000000,96.000000) scale(0.100000,-0.100000)"
fill="#000000" stroke="none">
<path d="M0 480 l0 -480 480 0 480 0 0 480 0 480 -480 0 -480 0 0 -480z m549
425 c36 -18 41 -32 41 -114 0 -64 -2 -71 -47 -136 -27 -38 -53 -70 -60 -72 -6
-2 -33 26 -59 62 -50 71 -72 85 -135 85 -33 0 -41 -4 -49 -26 -6 -14 -10 -124
-10 -245 0 -132 -4 -219 -10 -219 -5 0 -22 19 -39 43 -50 74 -53 74 -95 12
-20 -30 -41 -55 -46 -55 -6 0 -10 113 -10 313 0 280 2 314 18 334 22 28 38 30
275 32 156 1 204 -2 226 -14z m303 -212 c9 -10 30 -43 47 -74 l31 -56 0 -230
0 -231 -31 -26 -31 -26 -218 0 -218 0 -31 26 -31 26 0 211 1 212 55 -60 54
-60 45 50 c25 28 45 53 45 58 0 4 5 7 10 7 6 0 10 -46 10 -119 0 -66 3 -126 6
-135 9 -23 119 -23 128 0 3 9 6 79 6 157 0 139 0 141 31 196 33 59 57 91 69
91 4 0 14 -8 22 -17z"/>
</g>
</svg>
